<?xml version="1.0" encoding="UTF-8" standalone="no"?>
<svg
   xmlns:dc="http://purl.org/dc/elements/1.1/"
   xmlns:cc="http://creativecommons.org/ns#"
   xmlns:rdf="http://www.w3.org/1999/02/22-rdf-syntax-ns#"
   xmlns:svg="http://www.w3.org/2000/svg"
   xmlns="http://www.w3.org/2000/svg"
   xmlns:sodipodi="http://sodipodi.sourceforge.net/DTD/sodipodi-0.dtd"
   xmlns:inkscape="http://www.inkscape.org/namespaces/inkscape"
   viewBox="0 0 24 24"
   width="24"
   height="24"
   version="1.1"
   id="svg6"
   sodipodi:docname="settings-3-fill.svg"
   inkscape:export-filename="C:\Users\Stanislav\Desktop\remix\settings-3-fill.png"
   inkscape:export-xdpi="120"
   inkscape:export-ydpi="120"
   inkscape:version="1.0.2-2 (e86c870879, 2021-01-15)">
  <metadata
     id="metadata12">
    <rdf:RDF>
      <cc:Work
         rdf:about="">
        <dc:format>image/svg+xml</dc:format>
        <dc:type
           rdf:resource="http://purl.org/dc/dcmitype/StillImage" />
      </cc:Work>
    </rdf:RDF>
  </metadata>
  <defs
     id="defs10" />
  <sodipodi:namedview
     pagecolor="#ffffff"
     bordercolor="#666666"
     borderopacity="1"
     objecttolerance="10"
     gridtolerance="10"
     guidetolerance="10"
     inkscape:pageopacity="0"
     inkscape:pageshadow="2"
     inkscape:window-width="2560"
     inkscape:window-height="1387"
     id="namedview8"
     showgrid="false"
     inkscape:zoom="35.833333"
     inkscape:cx="10.772093"
     inkscape:cy="12"
     inkscape:window-x="-8"
     inkscape:window-y="-8"
     inkscape:window-maximized="1"
     inkscape:current-layer="svg6" />
  <path
     fill="none"
     d="M0 0h24v24H0z"
     id="path2" />
  <path
     d="M9.954 2.21a9.99 9.99 0 0 1 4.091-.002A3.993 3.993 0 0 0 16 5.07a3.993 3.993 0 0 0 3.457.261A9.99 9.99 0 0 1 21.5 8.876 3.993 3.993 0 0 0 20 12c0 1.264.586 2.391 1.502 3.124a10.043 10.043 0 0 1-2.046 3.543 3.993 3.993 0 0 0-3.456.261 3.993 3.993 0 0 0-1.954 2.86 9.99 9.99 0 0 1-4.091.004A3.993 3.993 0 0 0 8 18.927a3.993 3.993 0 0 0-3.457-.26A9.99 9.99 0 0 1 2.5 15.121 3.993 3.993 0 0 0 4 11.999a3.993 3.993 0 0 0-1.502-3.124 10.043 10.043 0 0 1 2.046-3.543A3.993 3.993 0 0 0 8 5.071a3.993 3.993 0 0 0 1.954-2.86zM12 15a3 3 0 1 0 0-6 3 3 0 0 0 0 6z"
     fill="#000"
     id="path4"
     style="fill:#00aa00;font-variation-settings:normal;opacity:1;vector-effect:none;fill-opacity:1;stroke-width:1;stroke-linecap:butt;stroke-linejoin:miter;stroke-miterlimit:4;stroke-dasharray:none;stroke-dashoffset:0;stroke-opacity:1;stop-color:#000000;stop-opacity:1" />
</svg>
