<?xml version="1.0" encoding="UTF-8" standalone="no"?>
<!-- Created with Inkscape (http://www.inkscape.org/) -->

<svg
   width="440"
   height="440"
   viewBox="0 0 88.000004 88.000004"
   version="1.1"
   id="svg1"
   inkscape:version="1.3.2 (091e20e, 2023-11-25, custom)"
   sodipodi:docname="icons.svg"
   xmlns:inkscape="http://www.inkscape.org/namespaces/inkscape"
   xmlns:sodipodi="http://sodipodi.sourceforge.net/DTD/sodipodi-0.dtd"
   xmlns="http://www.w3.org/2000/svg"
   xmlns:svg="http://www.w3.org/2000/svg">
  <sodipodi:namedview
     id="namedview1"
     pagecolor="#ffffff"
     bordercolor="#000000"
     borderopacity="0.25"
     inkscape:showpageshadow="2"
     inkscape:pageopacity="0.0"
     inkscape:pagecheckerboard="0"
     inkscape:deskcolor="#d1d1d1"
     inkscape:document-units="px"
     inkscape:zoom="2.55"
     inkscape:cx="220"
     inkscape:cy="195.68627"
     inkscape:window-width="2560"
     inkscape:window-height="1373"
     inkscape:window-x="-9"
     inkscape:window-y="-9"
     inkscape:window-maximized="1"
     inkscape:current-layer="layer1" />
  <defs
     id="defs1" />
  <g
     inkscape:label="Layer 1"
     inkscape:groupmode="layer"
     id="layer1"
     transform="translate(-53.802259,-71.553255)">
    <g
       id="g2"
       transform="translate(4.1568629,-6.5098042)"
       inkscape:export-filename="target_green_16.png"
       inkscape:export-xdpi="6.5828524"
       inkscape:export-ydpi="6.5828524">
      <path
         d="m 138.28238,97.527835 c 0,12.886675 -10.44584,23.333345 -23.33335,23.333345 -12.88751,0 -23.333349,-10.44667 -23.333349,-23.333345 0,-12.885844 10.445839,-23.333352 23.333349,-23.333352 12.88751,0 23.33335,10.447508 23.33335,23.333352 z"
         style="fill:#00aa00;fill-opacity:1;fill-rule:nonzero;stroke:none;stroke-width:0.833334;stroke-opacity:1"
         id="path1-8" />
      <path
         d="m 133.28238,97.527835 c 0,10.123335 -8.21001,18.333345 -18.33335,18.333345 -10.12417,0 -18.333345,-8.21001 -18.333345,-18.333345 0,-10.123341 8.209175,-18.333348 18.333345,-18.333348 10.12334,0 18.33335,8.210007 18.33335,18.333348 z"
         style="fill:#ffffff;fill-rule:nonzero;stroke:#00aa00;stroke-width:0.833334;stroke-opacity:1"
         id="path2" />
      <path
         d="m 128.28238,97.527835 c 0,7.362505 -5.97417,13.333345 -13.33335,13.333345 -7.36,0 -13.33334,-5.97084 -13.33334,-13.333345 0,-7.361672 5.97334,-13.333344 13.33334,-13.333344 7.35918,0 13.33335,5.971672 13.33335,13.333344 z"
         style="font-variation-settings:normal;opacity:1;vector-effect:none;fill:#00aa00;fill-opacity:1;fill-rule:nonzero;stroke:none;stroke-width:0.833334;stroke-linecap:butt;stroke-linejoin:miter;stroke-miterlimit:4;stroke-dasharray:none;stroke-dashoffset:0;stroke-opacity:1;-inkscape-stroke:none;stop-color:#000000;stop-opacity:1"
         id="path3" />
      <path
         d="m 123.28237,97.527835 c 0,4.601665 -3.735,8.333335 -8.33334,8.333335 -4.6,0 -8.33334,-3.73167 -8.33334,-8.333335 0,-4.60167 3.73334,-8.33334 8.33334,-8.33334 4.59834,0 8.33334,3.73167 8.33334,8.33334 z"
         style="font-variation-settings:normal;opacity:1;vector-effect:none;fill:#ffffff;fill-opacity:1;fill-rule:nonzero;stroke:#00aa00;stroke-width:0.833334;stroke-linecap:butt;stroke-linejoin:miter;stroke-miterlimit:4;stroke-dasharray:none;stroke-dashoffset:0;stroke-opacity:1;-inkscape-stroke:none;stop-color:#000000;stop-opacity:1"
         id="path4" />
      <path
         d="m 118.28237,97.527835 c 0,1.840835 -1.49417,3.333335 -3.33334,3.333335 -1.84083,0 -3.33333,-1.4925 -3.33333,-3.333335 0,-1.840835 1.4925,-3.333336 3.33333,-3.333336 1.83917,0 3.33334,1.492501 3.33334,3.333336 z"
         style="font-variation-settings:normal;opacity:1;vector-effect:none;fill:#00aa00;fill-opacity:1;fill-rule:nonzero;stroke:none;stroke-width:0.833334;stroke-linecap:butt;stroke-linejoin:miter;stroke-miterlimit:4;stroke-dasharray:none;stroke-dashoffset:0;stroke-opacity:1;-inkscape-stroke:none;stop-color:#000000;stop-opacity:1"
         id="path5" />
    </g>
    <g
       id="g1">
      <g
         id="g27"
         transform="rotate(45,89.157731,163.99967)"
         style="stroke:#00aa00;stroke-opacity:1">
        <path
           id="path24"
           style="fill:none;fill-rule:evenodd;stroke:#00aa00;stroke-width:3.2;stroke-linecap:square;stroke-linejoin:round;stroke-dasharray:none;stroke-opacity:1;paint-order:stroke markers fill"
           d="m 67.727973,165.81378 c 0,0 -0.417407,4.2813 -1.276998,6.67294 -1.093818,3.04333 -4.816121,6.74965 -4.816121,6.74965 0,0 -3.722304,-3.70632 -4.816122,-6.74965 -0.859591,-2.39164 -1.276998,-6.67294 -1.276998,-6.67294"
           sodipodi:nodetypes="cscsc" />
        <path
           id="rect2"
           style="fill:none;fill-rule:evenodd;stroke:#00aa00;stroke-width:3.2;stroke-linecap:butt;stroke-linejoin:round;stroke-dasharray:none;stroke-opacity:1;paint-order:stroke markers fill"
           d="m 61.312109,125.43179 c 0,0 -4.917294,5.59136 -6.555859,9.23672 -1.638571,3.64536 -1.610547,9.27734 -1.610547,9.27734 h 0.08164 v 19.64883 c 0,0.50273 1.48577,0.90742 3.33125,0.90742 h 9.640234 c 1.84548,0 3.33125,-0.40469 3.33125,-0.90742 v -19.75547 c 0,-0.0544 -0.02056,-0.10728 -0.05391,-0.15898 -0.01794,-1.1482 -0.179342,-5.8329 -1.608203,-9.01172 -1.638566,-3.64536 -6.55586,-9.23672 -6.55586,-9.23672 z"
           inkscape:export-filename="rocket_green_16.png"
           inkscape:export-xdpi="7.4895134"
           inkscape:export-ydpi="7.4895134" />
        <path
           style="fill:none;fill-rule:evenodd;stroke:#00aa00;stroke-width:3.2;stroke-linecap:butt;stroke-linejoin:round;stroke-dasharray:none;stroke-opacity:1;paint-order:stroke markers fill"
           d="m 68.090051,164.41382 h 7.302709 l -0.05143,-6.99415 -5.759883,-5.45131"
           id="path21"
           sodipodi:nodetypes="cccc" />
        <path
           style="fill:none;fill-rule:evenodd;stroke:#00aa00;stroke-width:3.2;stroke-linecap:butt;stroke-linejoin:round;stroke-dasharray:none;stroke-opacity:1;paint-order:stroke markers fill"
           d="m 54.724638,164.41382 h -7.302709 l 0.05143,-6.99415 5.759883,-5.45131"
           id="path22"
           sodipodi:nodetypes="cccc" />
        <path
           style="fill:#ffcc00;fill-rule:evenodd;stroke:#00aa00;stroke-width:3.2;stroke-linecap:square;stroke-linejoin:round;stroke-dasharray:none;stroke-opacity:1;paint-order:stroke markers fill"
           d="M 55.233168,136.79723 H 67.164356"
           id="path25" />
        <circle
           style="fill:none;fill-rule:evenodd;stroke:#00aa00;stroke-width:1.6;stroke-linecap:square;stroke-linejoin:round;stroke-dasharray:none;stroke-opacity:1;paint-order:stroke markers fill"
           id="path26"
           cx="61.336674"
           cy="145.13423"
           r="3.0913985" />
        <path
           style="fill:none;fill-rule:evenodd;stroke:#00aa00;stroke-width:1.6;stroke-linecap:round;stroke-linejoin:round;stroke-dasharray:none;stroke-opacity:1;paint-order:stroke markers fill"
           d="m 61.455897,151.65869 v 10.95625"
           id="path27" />
      </g>
    </g>
  </g>
</svg>
