<?xml version="1.0" encoding="UTF-8" standalone="no"?>
<svg
   version="1.1"
   viewBox="-5 -10 512 512"
   id="svg2"
   sodipodi:docname="kairos.svg"
   width="512"
   height="512"
   inkscape:version="1.3.2 (091e20e, 2023-11-25, custom)"
   inkscape:export-filename="kairos.png"
   inkscape:export-xdpi="96"
   inkscape:export-ydpi="96"
   xmlns:inkscape="http://www.inkscape.org/namespaces/inkscape"
   xmlns:sodipodi="http://sodipodi.sourceforge.net/DTD/sodipodi-0.dtd"
   xmlns="http://www.w3.org/2000/svg"
   xmlns:svg="http://www.w3.org/2000/svg">
  <defs
     id="defs2" />
  <sodipodi:namedview
     id="namedview2"
     pagecolor="#ffffff"
     bordercolor="#000000"
     borderopacity="0.25"
     inkscape:showpageshadow="2"
     inkscape:pageopacity="0.0"
     inkscape:pagecheckerboard="0"
     inkscape:deskcolor="#d1d1d1"
     inkscape:zoom="2.1914062"
     inkscape:cx="256"
     inkscape:cy="256"
     inkscape:window-width="2560"
     inkscape:window-height="1373"
     inkscape:window-x="-9"
     inkscape:window-y="-9"
     inkscape:window-maximized="1"
     inkscape:current-layer="svg2" />
  <g
     id="g11"
     transform="rotate(-45,250.99999,244.94028)">
    <path
       style="font-variation-settings:normal;opacity:1;vector-effect:none;fill:#ffcc00;fill-opacity:1;fill-rule:evenodd;stroke:none;stroke-width:32;stroke-linecap:round;stroke-linejoin:round;stroke-miterlimit:4;stroke-dasharray:none;stroke-dashoffset:0;stroke-opacity:1;-inkscape-stroke:none;paint-order:stroke markers fill;stop-color:#000000;stop-opacity:1"
       id="path10"
       sodipodi:type="arc"
       sodipodi:cx="251"
       sodipodi:cy="138.09761"
       sodipodi:rx="97.284096"
       sodipodi:ry="95.353951"
       sodipodi:start="0"
       sodipodi:end="3.1415927"
       sodipodi:open="true"
       sodipodi:arc-type="arc"
       d="m 348.2841,138.09761 a 97.284096,95.353951 0 0 1 -48.64205,82.57894 97.284096,95.353951 0 0 1 -97.2841,0 97.284096,95.353951 0 0 1 -48.64205,-82.57894" />
    <path
       id="path6"
       style="font-variation-settings:normal;opacity:1;vector-effect:none;fill:none;fill-opacity:1;fill-rule:evenodd;stroke:#0066ff;stroke-width:32;stroke-linecap:round;stroke-linejoin:round;stroke-miterlimit:4;stroke-dasharray:none;stroke-dashoffset:0;stroke-opacity:1;-inkscape-stroke:none;paint-order:stroke markers fill;stop-color:#000000;stop-opacity:1"
       d="m 357.77681,109.13281 c 0,-14.517395 -12.72122,-26.203122 -28.52243,-26.203122 H 172.74561 c -15.80118,0 -28.52242,11.685727 -28.52242,26.203122 v 49.68946 c 7.9e-4,33.63297 20.35223,57.38178 53.38841,70.23242 33.03685,12.85097 73.73996,12.85097 106.77681,0 33.03617,-12.85064 53.38762,-36.59945 53.3884,-70.23242 z"
       sodipodi:nodetypes="sssscsscs" />
    <path
       id="rect10"
       style="fill:#ffcc00;fill-rule:evenodd;stroke:none;stroke-width:32;stroke-linecap:round;stroke-linejoin:round;stroke-dasharray:none;paint-order:stroke markers fill"
       d="m 250.97266,266.19531 c -0.52007,0.002 -1.00899,0.002 -1.53516,0.002 -9.22739,0 -11.54492,0.37894 -11.54492,2.89257 0,0 0.23046,0.16951 0.34765,15.79688 0.0678,9.0334 -0.13318,18.63911 -2.38281,26.05859 -2.89096,9.53474 -12.65115,12.11763 -16.41406,13.5625 h -48.56055 c -14.5174,0 -26.20508,11.68768 -26.20508,26.20508 v 32.1543 c 0,14.5174 11.68768,26.20508 26.20508,26.20508 h 160.23438 c 14.5174,0 26.20508,-11.68768 26.20508,-26.20508 v -32.1543 c 0,-14.5174 -11.68768,-26.20508 -26.20508,-26.20508 h -48.56055 c -3.76291,-1.44487 -13.52309,-4.02776 -16.41406,-13.5625 -2.24963,-7.41948 -2.4506,-17.02519 -2.38281,-26.05859 0.11719,-15.62737 0.34765,-15.79688 0.34765,-15.79688 0,-2.51363 -2.31754,-2.89257 -11.54492,-2.89257 -0.52617,0 -1.0151,-1.1e-4 -1.53516,-0.002 -0.0185,-6e-5 -0.0361,7e-5 -0.0547,0 z" />
    <path
       id="path7"
       style="fill:none;fill-rule:evenodd;stroke:#0066ff;stroke-width:32;stroke-linecap:round;stroke-linejoin:round;stroke-dasharray:none;paint-order:stroke markers fill"
       d="m 357.77429,382.86818 c 0,14.5174 -12.72091,26.20312 -28.52175,26.20312 H 172.74745 c -15.80081,0 -28.52175,-11.68572 -28.52175,-26.20312 v -49.68946 c 7.8e-4,-33.63297 20.35176,-57.38178 53.38715,-70.23242 33.03607,-12.85097 73.73822,-12.85097 106.77429,0 33.0354,12.85064 53.38637,36.59945 53.38715,70.23242 z"
       sodipodi:nodetypes="sssscsscs" />
    <path
       style="font-variation-settings:normal;opacity:1;vector-effect:none;fill:none;fill-opacity:1;fill-rule:evenodd;stroke:#0066ff;stroke-width:32;stroke-linecap:round;stroke-linejoin:round;stroke-miterlimit:4;stroke-dasharray:none;stroke-dashoffset:0;stroke-opacity:1;-inkscape-stroke:none;paint-order:stroke markers fill;stop-color:#000000;stop-opacity:1"
       d="M 103.37789,80.809269 H 398.6221"
       id="path8" />
    <path
       style="font-variation-settings:normal;opacity:1;vector-effect:none;fill:none;fill-opacity:1;fill-rule:evenodd;stroke:#0066ff;stroke-width:32;stroke-linecap:round;stroke-linejoin:round;stroke-miterlimit:4;stroke-dasharray:none;stroke-dashoffset:0;stroke-opacity:1;-inkscape-stroke:none;paint-order:stroke markers fill;stop-color:#000000;stop-opacity:1"
       d="M 103.37789,409.0713 H 398.6221"
       id="path9" />
  </g>
</svg>
